<?xml version="1.0" encoding="utf-8"?>
<!-- Generator: Adobe Illustrator 27.3.1, SVG Export Plug-In . SVG Version: 6.00 Build 0)  -->
<svg version="1.1" id="Layer_1" xmlns="http://www.w3.org/2000/svg" xmlns:xlink="http://www.w3.org/1999/xlink" x="0px" y="0px"
	 viewBox="0 0 16.2 14.4" style="enable-background:new 0 0 16.2 14.4;" xml:space="preserve">
<style type="text/css">
	.st0{fill:none;stroke:#000000;stroke-miterlimit:10;}
	.st1{fill:#22B573;}
	.st2{fill:none;stroke:#22B573;stroke-width:3;stroke-linecap:round;stroke-miterlimit:10;}
	.st3{fill:#26C281;}
	.st4{fill:#808080;}
	.st5{fill:#C8D2DB;}
	.st6{fill:#484E58;}
	.st7{fill:#393E46;}
	.st8{fill:#1E2127;}
	.st9{fill:#FFFFFF;}
</style>
<path class="st3" d="M16.2,6.2c0,4.2-3.1,7.6-7.2,8.1c-0.1,0-0.1,0-0.2,0c-0.2,0-0.5,0-0.7,0c-0.2,0-0.5,0-0.7,0c-0.1,0-0.1,0-0.2,0
	C3.1,13.9,0,10.4,0,6.2c0-0.5,0-1,0.2-1.5C0.5,3,1.3,1.5,2.5,0.4L2.9,0l0.5,0.3c1.7,1,3.2,2.5,4.1,4.2c0.2,0.3,0.1,0.8-0.3,1
	c-0.3,0.2-0.8,0.1-1-0.3C5.5,3.8,4.4,2.6,3.1,1.8C2.3,2.7,1.8,3.8,1.5,5C1.5,5.4,1.4,5.8,1.4,6.2c0,3.4,2.6,6.3,6,6.7c0,0,0,0,0,0
	V9.8C5.9,9.6,4.6,8.7,3.8,7.4C3.6,7.1,3.7,6.7,4,6.5c0.3-0.2,0.8-0.1,1,0.2c0.7,1.1,1.8,1.8,3.1,1.8c1.3,0,2.4-0.7,3.1-1.8
	c0.2-0.3,0.6-0.4,1-0.2c0.3,0.2,0.4,0.6,0.2,1c-0.8,1.3-2.1,2.2-3.6,2.4v3.1c0,0,0,0,0,0c3.4-0.4,6-3.2,6-6.7c0-0.4,0-0.9-0.1-1.3
	c-0.2-1.2-0.8-2.3-1.6-3.2c-1.3,0.9-2.4,2-3.1,3.4C9.8,5.5,9.3,5.6,9,5.4c-0.3-0.2-0.5-0.6-0.3-1c1-1.8,2.4-3.2,4.1-4.2L13.3,0
	l0.4,0.4c1.2,1.2,2.1,2.7,2.4,4.3C16.2,5.2,16.2,5.7,16.2,6.2z"/>
</svg>
