<?xml version="1.0" encoding="utf-8"?>
<!-- Generator: Adobe Illustrator 27.2.0, SVG Export Plug-In . SVG Version: 6.00 Build 0)  -->
<svg version="1.1" id="Layer_1" xmlns="http://www.w3.org/2000/svg" xmlns:xlink="http://www.w3.org/1999/xlink" x="0px" y="0px"
	 viewBox="0 0 84 14.4" style="enable-background:new 0 0 84 14.4;" xml:space="preserve">
<style type="text/css">
	.st0{fill:none;stroke:#000000;stroke-miterlimit:10;}
	.st1{fill:#22B573;}
	.st2{fill:none;stroke:#22B573;stroke-width:3;stroke-linecap:round;stroke-miterlimit:10;}
	.st3{fill:#26C281;}
	.st4{fill:#808080;}
	.st5{fill:#C8D2DB;}
	.st6{fill:#cbc3d5;}
	.st7{fill:#FFFFFF;}
</style>
<g>
	
	<g>
		<path class="st6" d="M22.5,9.5h3.2v4c-0.9,0.2-2,0.3-2.6,0.3c-3.4,0-4.7-1.7-4.7-4.5c0-2.8,1.7-3.9,3.8-3.9c2.3,0,3.4,1,3.4,2.9
			v0.2h-1.6V8.3c0-0.9-0.7-1.4-1.7-1.4c-1.1,0-2,0.7-2,2.4c0,1.6,0.4,3,2.7,3c0.2,0,0.6,0,1-0.1v-1.5h-1.5V9.5z"/>
		<path class="st6" d="M30,10.7L30,10.7c0-1-0.2-1.4-1.4-1.4c-0.5,0-1.2,0.1-1.8,0.2V8.2c0.7-0.2,1.4-0.3,2.1-0.3
			c2.1,0,2.9,0.7,2.9,2.2v3.5h-1.5l-0.1-0.4c-0.4,0.3-1.1,0.5-1.8,0.5c-1.4,0-2-0.6-2-1.5c0-0.9,0.5-1.7,2.2-1.7
			C29.1,10.5,29.7,10.6,30,10.7z M30,12.3v-0.7c-0.2-0.1-0.5-0.1-0.8-0.1c-0.6,0-1,0.1-1,0.6c0,0.4,0.3,0.6,0.8,0.6
			C29.4,12.7,29.8,12.5,30,12.3z"/>
		<path class="st6" d="M33.1,13.6V8h1.7v1c0.4-0.7,1-1.2,1.6-1.2c0.3,0,0.5,0.1,0.5,0.1v1.6c-0.2-0.1-0.4-0.1-0.6-0.1
			c-0.5,0-1.1,0.3-1.4,1v3.2H33.1z"/>
		<path class="st6" d="M41.4,12.9c-0.4,0.6-1.1,0.9-1.8,0.9c-1.5,0-2.3-1.3-2.3-2.9c0-1.4,0.7-3,2.4-3c0.7,0,1.2,0.3,1.5,0.5V5.2H43
			v8.5h-1.5L41.4,12.9z M41.3,11.3V9.7c-0.3-0.3-0.7-0.5-1-0.5c-0.7,0-1.2,0.6-1.2,1.6c0,0.9,0.4,1.4,1.1,1.4
			C40.8,12.3,41.1,11.9,41.3,11.3z"/>
		<path class="st6" d="M45.8,11.3c0.1,0.7,0.6,1,1.8,1c0.6,0,1.3-0.1,1.8-0.2v1.4c-0.8,0.2-1.6,0.2-2.2,0.2c-2.1,0-3.3-0.9-3.3-3
			c0-1.9,0.9-2.9,2.8-2.9c1.8,0,2.7,1,2.7,2.8v0.6H45.8z M45.7,10.3h2v-0.2c0-0.7-0.4-1-1-1S45.8,9.4,45.7,10.3z"/>
		<path class="st6" d="M50.7,8h1.7v0.4c0.4-0.3,1.1-0.5,1.8-0.5c1.6,0,2,1.1,2,2v3.7h-1.7v-3.2c0-0.7-0.3-1.1-1-1.1
			c-0.4,0-0.8,0.1-1.1,0.3v4h-1.7V8z"/>
		<path class="st6" d="M61.2,9.5h3.2v4c-0.9,0.2-2,0.3-2.6,0.3c-3.4,0-4.7-1.7-4.7-4.5c0-2.8,1.7-3.9,3.8-3.9c2.3,0,3.4,1,3.4,2.9
			v0.2h-1.6V8.3c0-0.9-0.7-1.4-1.7-1.4c-1.1,0-2,0.7-2,2.4c0,1.6,0.4,3,2.7,3c0.2,0,0.6,0,1-0.1v-1.5h-1.5V9.5z"/>
		<path class="st6" d="M68.1,13.8c-1.8,0-2.9-1.1-2.9-3c0-2,1.2-2.9,2.9-2.9c1.7,0,2.9,1,2.9,2.9C71,12.7,69.9,13.8,68.1,13.8z
			 M68.1,9.2c-0.7,0-1.2,0.6-1.2,1.6c0,1,0.4,1.6,1.2,1.6c0.8,0,1.2-0.7,1.2-1.6C69.3,9.8,68.8,9.2,68.1,9.2z"/>
		<path class="st6" d="M74.5,13.8c-1.8,0-2.9-1.1-2.9-3c0-2,1.2-2.9,2.9-2.9c1.7,0,2.9,1,2.9,2.9C77.4,12.7,76.3,13.8,74.5,13.8z
			 M74.5,9.2c-0.7,0-1.2,0.6-1.2,1.6c0,1,0.4,1.6,1.2,1.6c0.8,0,1.2-0.7,1.2-1.6C75.7,9.8,75.3,9.2,74.5,9.2z"/>
		<path class="st6" d="M82.3,12.9c-0.4,0.6-1.1,0.9-1.8,0.9c-1.5,0-2.3-1.3-2.3-2.9c0-1.4,0.7-3,2.4-3c0.7,0,1.2,0.3,1.5,0.5V5.2H84
			v8.5h-1.5L82.3,12.9z M82.2,11.3V9.7c-0.3-0.3-0.7-0.5-1-0.5c-0.7,0-1.2,0.6-1.2,1.6c0,0.9,0.4,1.4,1.1,1.4
			C81.7,12.3,82,11.9,82.2,11.3z"/>
	</g>
	<path class="st3" d="M16.2,6.2c0,4.2-3.1,7.6-7.2,8.1c-0.1,0-0.1,0-0.2,0c-0.2,0-0.5,0-0.7,0c-0.2,0-0.5,0-0.7,0
		c-0.1,0-0.1,0-0.2,0C3.1,13.9,0,10.4,0,6.2c0-0.5,0-1,0.2-1.5C0.5,3,1.3,1.5,2.5,0.4L2.9,0l0.5,0.3c1.7,1,3.2,2.5,4.1,4.2
		c0.2,0.3,0.1,0.8-0.3,1c-0.3,0.2-0.8,0.1-1-0.3C5.5,3.8,4.4,2.6,3.1,1.8C2.3,2.7,1.8,3.8,1.5,5C1.5,5.4,1.4,5.8,1.4,6.2
		c0,3.4,2.6,6.3,6,6.7c0,0,0,0,0,0V9.8C5.9,9.6,4.6,8.7,3.8,7.4C3.6,7.1,3.7,6.7,4,6.5c0.3-0.2,0.8-0.1,1,0.2
		c0.7,1.1,1.8,1.8,3.1,1.8c1.3,0,2.4-0.7,3.1-1.8c0.2-0.3,0.6-0.4,1-0.2c0.3,0.2,0.4,0.6,0.2,1c-0.8,1.3-2.1,2.2-3.6,2.4v3.1
		c0,0,0,0,0,0c3.4-0.4,6-3.2,6-6.7c0-0.4,0-0.9-0.1-1.3c-0.2-1.2-0.8-2.3-1.6-3.2c-1.3,0.9-2.4,2-3.1,3.4C9.8,5.5,9.3,5.6,9,5.4
		c-0.3-0.2-0.5-0.6-0.3-1c1-1.8,2.4-3.2,4.1-4.2L13.3,0l0.4,0.4c1.2,1.2,2.1,2.7,2.4,4.3C16.2,5.2,16.2,5.7,16.2,6.2z"/>
</g>
</svg>
